<?xml version="1.0" standalone="no"?>
<!DOCTYPE svg PUBLIC "-//W3C//DTD SVG 20010904//EN"
 "http://www.w3.org/TR/2001/REC-SVG-20010904/DTD/svg10.dtd">
<svg version="1.0" xmlns="http://www.w3.org/2000/svg"
 width="400.000000pt" height="400.000000pt" viewBox="0 0 400.000000 400.000000"
 preserveAspectRatio="xMidYMid meet">
<metadata>
Created by potrace 1.11, written by Peter Selinger 2001-2013
</metadata>
<g transform="translate(0.000000,400.000000) scale(0.100000,-0.100000)"
fill="#000000" stroke="none">
<path d="M780 3985 c-7 -8 -17 -12 -22 -9 -12 7 -68 -45 -68 -63 0 -7 -9 -17
-19 -23 -27 -14 -91 -111 -95 -142 -1 -10 -26 -44 -63 -86 -18 -20 -33 -41
-33 -46 0 -5 -11 -19 -26 -32 -14 -13 -22 -24 -18 -24 4 0 0 -8 -8 -17 -8 -10
-20 -33 -26 -51 -6 -18 -20 -46 -32 -61 -11 -16 -20 -32 -20 -36 0 -4 -9 -17
-21 -29 -25 -26 -99 -161 -99 -181 0 -8 -16 -45 -36 -82 -20 -38 -38 -84 -41
-103 -2 -19 -10 -40 -18 -46 -8 -6 -12 -14 -8 -17 3 -4 -6 -30 -22 -59 -15
-28 -29 -68 -29 -88 -1 -24 -11 -48 -29 -69 -15 -18 -27 -41 -27 -51 0 -10 -5
-22 -10 -25 -7 -4 -10 -412 -10 -1192 l0 -1185 27 5 c72 15 91 20 133 40 56
26 123 28 146 5 16 -16 16 -19 1 -41 -25 -38 -63 -77 -76 -77 -6 0 -11 -4 -11
-9 0 -5 -17 -18 -37 -28 -26 -12 -38 -25 -39 -41 -1 -12 3 -22 7 -22 5 0 9 6
9 13 0 8 3 8 9 -2 11 -17 -20 -37 -73 -46 -24 -5 -35 -14 -43 -36 l-11 -29
1679 0 c1880 0 1709 -7 1793 73 46 44 67 46 113 11 49 -37 107 -43 138 -14 17
16 23 30 19 45 -4 15 0 24 10 28 12 5 13 12 5 36 -6 16 -17 32 -25 35 -24 9
-16 24 20 36 36 11 64 39 86 82 7 16 16 28 20 28 18 0 49 39 52 65 2 19 9 30
18 30 8 0 18 5 22 10 4 6 8 473 8 1038 l0 1028 -40 48 c-38 45 -51 69 -30 56
11 -7 -6 46 -18 55 -4 3 -20 32 -37 65 -16 33 -33 63 -38 66 -8 6 -23 32 -68
119 -13 25 -33 56 -45 69 -12 13 -20 30 -17 36 2 7 -6 20 -18 28 -23 17 -69
90 -69 112 0 6 -10 23 -23 37 -26 30 -47 64 -47 78 0 5 -9 20 -20 32 -10 13
-21 27 -22 33 -2 5 -19 26 -39 46 -20 21 -43 51 -50 68 -9 20 -16 26 -21 18
-7 -11 -12 15 -10 53 0 8 -8 20 -17 27 -10 7 -24 26 -31 43 -7 16 -16 30 -21
30 -5 0 -9 5 -9 11 0 6 -6 17 -12 24 -20 22 -32 37 -58 75 -13 19 -31 40 -39
46 -8 6 -11 16 -7 22 4 7 1 12 -7 12 -8 0 -17 7 -21 15 -3 8 -17 20 -31 27
-14 6 -25 17 -25 25 0 7 -16 29 -36 48 -28 28 -39 33 -54 25 -13 -7 -19 -6
-24 5 -5 13 -96 15 -701 15 -611 0 -695 -2 -695 -15 0 -8 4 -15 8 -15 5 0 27
-17 49 -37 71 -67 96 -88 100 -85 1 1 12 -6 22 -15 10 -10 31 -28 45 -40 15
-12 26 -23 25 -25 -1 -2 15 -21 37 -44 21 -23 53 -56 69 -75 46 -52 115 -109
132 -109 14 0 43 -23 43 -35 0 -10 27 -35 39 -35 5 0 23 -12 40 -26 17 -14 35
-23 41 -19 5 3 10 2 10 -3 0 -6 6 -9 13 -8 10 1 147 -62 280 -130 16 -8 40
-14 53 -14 14 0 23 -4 20 -9 -7 -11 31 -36 69 -45 17 -3 35 -8 42 -9 7 -2 20
-11 31 -20 10 -9 22 -17 26 -17 5 0 25 -17 45 -37 20 -21 51 -50 68 -64 20
-17 36 -43 43 -70 7 -24 20 -49 30 -56 12 -8 16 -21 13 -38 -3 -14 -1 -25 5
-25 6 0 10 -13 10 -28 -1 -15 5 -45 12 -67 19 -58 19 -233 0 -245 -22 -14 -49
-2 -105 45 -59 50 -114 75 -164 75 -20 0 -45 0 -56 0 -11 1 -42 0 -68 0 -27
-1 -55 4 -64 11 -9 8 -17 9 -21 3 -4 -5 -20 -11 -37 -12 -16 -1 -41 -6 -55
-11 -14 -5 -47 -13 -75 -17 -89 -13 -112 -21 -119 -40 -3 -8 -12 -14 -19 -14
-8 0 -20 -7 -27 -15 -9 -10 -16 -12 -24 -5 -30 24 -126 -35 -126 -78 0 -18 31
-72 48 -82 12 -8 13 -13 5 -16 -9 -4 -9 -11 3 -30 9 -13 13 -31 10 -40 -8 -22
31 -84 54 -84 10 0 23 -12 30 -30 7 -16 15 -30 19 -31 35 -6 101 -4 121 3 14
5 37 21 52 35 31 30 54 26 69 -14 17 -46 99 -90 162 -88 30 1 47 11 80 43 24
23 48 42 55 42 16 0 24 -38 20 -91 -3 -37 0 -44 17 -47 27 -5 55 -31 55 -50 0
-13 2 -13 13 2 10 13 34 18 107 23 84 6 97 9 114 30 14 19 24 23 44 18 31 -8
45 -24 77 -90 49 -103 80 -300 51 -324 -8 -7 -12 -19 -9 -29 5 -19 -21 -87
-37 -97 -5 -3 -10 -13 -10 -21 0 -7 -16 -35 -36 -60 -19 -26 -38 -60 -41 -75
-3 -16 -10 -29 -15 -29 -6 0 -8 -7 -5 -15 4 -8 2 -17 -3 -20 -5 -3 -10 3 -13
12 -3 15 -6 13 -15 -9 -6 -14 -16 -29 -21 -33 -13 -7 -12 -93 1 -101 4 -3 8
-17 8 -32 1 -28 34 -74 63 -85 9 -3 17 -12 17 -19 0 -7 15 -23 33 -35 28 -19
32 -27 29 -60 -4 -72 -7 -84 -19 -91 -7 -4 -17 -28 -22 -53 -12 -52 -76 -184
-104 -214 -10 -11 -26 -33 -34 -49 -8 -16 -28 -43 -44 -60 -16 -17 -29 -34
-29 -39 0 -4 -27 -34 -60 -66 -33 -32 -60 -63 -60 -69 0 -5 -11 -17 -24 -25
-28 -18 -86 -20 -80 -2 8 19 -14 65 -31 65 -11 0 -15 -10 -15 -35 0 -24 -5
-35 -15 -35 -18 0 -19 12 -3 28 6 6 9 15 5 18 -3 4 -13 -1 -21 -9 -18 -17 -81
-16 -98 1 -8 8 -19 7 -41 -5 -23 -12 -27 -17 -16 -24 12 -8 12 -10 0 -18 -9
-6 -21 -5 -31 1 -22 14 -51 3 -57 -22 -3 -13 -14 -20 -29 -20 -17 0 -24 -6
-24 -20 0 -15 -6 -19 -22 -17 -19 2 -23 -2 -20 -23 2 -24 2 -24 -12 -5 -10 14
-17 17 -27 9 -20 -16 -58 -24 -65 -13 -8 14 -40 11 -54 -5 -6 -8 -18 -12 -25
-10 -7 3 -23 0 -35 -6 -14 -7 -26 -8 -32 -2 -5 5 -30 7 -56 5 -42 -4 -48 -2
-57 19 -9 22 -16 23 -103 24 -50 1 -99 4 -107 8 -8 3 -20 0 -27 -7 -9 -9 -44
-12 -108 -12 -71 1 -99 -2 -112 -13 -16 -13 -18 -13 -18 1 0 9 -11 19 -25 23
-14 3 -25 10 -25 14 0 5 -8 6 -18 3 -10 -2 -24 3 -31 11 -9 10 -22 14 -36 10
-18 -4 -28 1 -40 20 -10 14 -23 26 -30 26 -6 0 -17 11 -23 25 -7 14 -22 29
-34 34 -13 5 -43 27 -66 50 -37 36 -48 41 -73 36 -24 -6 -30 -3 -38 18 -8 20
-18 26 -50 29 -41 3 -71 -10 -71 -31 0 -6 7 -14 15 -17 8 -4 13 -10 10 -14 -3
-5 -1 -11 5 -15 5 -3 10 1 10 9 0 9 5 16 10 16 13 0 13 -6 0 -31 -8 -14 -21
-19 -48 -18 -20 0 -32 3 -26 5 22 9 4 43 -22 40 -13 -2 -26 -5 -29 -8 -3 -2
-18 -3 -35 0 -21 3 -30 10 -30 23 0 11 -3 19 -7 19 -5 0 -13 11 -20 25 -6 14
-7 25 -2 25 5 0 9 -4 9 -10 0 -5 7 -10 15 -10 25 0 17 17 -14 28 -16 6 -35 21
-42 34 -7 13 -20 29 -30 36 -10 7 -16 19 -13 26 3 8 1 17 -5 21 -6 3 -22 30
-35 60 -14 29 -30 56 -35 60 -6 3 -11 19 -11 36 0 16 -3 29 -7 29 -13 0 -32
50 -26 66 3 9 -4 29 -16 45 -13 17 -25 47 -28 67 -4 20 -11 42 -18 48 -6 6
-17 42 -24 80 -8 38 -20 76 -28 85 -8 10 -13 35 -12 60 1 45 -17 174 -27 190
-3 5 -2 15 3 21 9 16 13 89 6 102 -7 10 -7 17 -17 126 -4 36 -9 71 -12 79 -2
8 -1 17 4 20 6 4 6 31 1 66 -5 33 -6 72 -3 88 3 15 7 42 9 60 6 60 25 172 39
227 37 145 47 177 60 205 8 17 22 48 31 70 9 22 23 53 31 68 8 16 14 37 14 48
0 11 9 39 20 61 11 23 20 52 20 64 0 13 5 26 10 29 6 4 8 15 5 25 -3 11 5 41
20 69 14 28 25 57 25 65 0 7 7 27 15 42 8 16 15 37 15 47 0 9 6 17 13 17 6 0
19 15 26 33 15 33 30 51 120 147 44 45 55 64 55 91 1 26 5 34 19 33 9 -1 17 5
17 13 0 9 6 13 15 9 10 -4 15 1 15 14 0 13 7 20 20 20 11 0 23 8 26 18 4 9 13
33 22 52 9 19 16 38 15 41 -1 3 8 17 20 31 12 15 31 39 42 54 11 15 35 45 53
67 17 21 32 43 32 48 0 5 11 14 25 19 14 5 30 21 35 35 6 15 17 25 29 25 11 0
39 17 64 38 24 20 58 48 75 61 20 15 32 33 32 47 0 15 6 24 15 24 8 0 15 5 15
10 0 6 10 15 23 20 14 5 -119 9 -354 9 -322 1 -378 -1 -389 -14z m2461 -342
c13 -16 12 -17 -3 -4 -10 7 -18 15 -18 17 0 8 8 3 21 -13z m-497 -1137 c33 -8
66 -12 74 -9 8 3 17 2 21 -3 3 -5 18 -17 32 -26 27 -17 42 -57 29 -78 -10 -16
-119 -13 -192 5 -35 9 -46 -12 -14 -27 36 -16 32 -24 -9 -25 -22 -1 -35 4 -35
12 0 8 -9 10 -26 7 -24 -4 -25 -3 -15 16 9 18 8 23 -8 32 -11 5 -26 10 -34 10
-8 0 -25 9 -38 20 -19 17 -20 20 -6 18 10 -2 22 7 30 22 10 21 21 26 62 28 27
2 52 5 54 8 6 6 9 5 75 -10z m-2296 -1647 c-2 -6 -8 -10 -13 -10 -5 0 -11 4
-13 10 -2 6 4 11 13 11 9 0 15 -5 13 -11z m1747 -719 c-3 -5 -12 -10 -18 -10
-7 0 -6 4 3 10 19 12 23 12 15 0z"/>
<path d="M1185 2712 c-3 -3 -52 -4 -110 -3 -63 1 -112 -2 -125 -9 -22 -12 -60
-46 -60 -54 0 -2 -17 -23 -37 -46 -61 -67 -51 -135 15 -101 9 5 29 14 45 22
18 8 27 20 27 36 0 21 18 30 53 24 4 -1 51 -5 105 -9 72 -7 111 -16 153 -35
31 -15 61 -27 67 -27 7 0 17 -9 24 -19 6 -10 18 -17 25 -14 7 3 13 0 13 -5 0
-6 -26 -13 -57 -17 -32 -3 -71 -13 -87 -22 -29 -16 -126 -27 -126 -14 0 7 -52
2 -151 -14 -35 -6 -62 -21 -118 -67 -74 -61 -96 -96 -87 -134 6 -22 35 -33
101 -37 17 -2 35 -6 41 -10 7 -4 28 0 47 8 28 11 35 20 33 38 -2 13 7 35 18
50 l21 26 33 -30 c19 -18 32 -40 32 -55 0 -17 5 -24 19 -24 11 0 23 -5 26 -10
4 -6 15 -8 25 -5 10 3 36 8 57 10 21 2 38 4 38 5 0 1 11 3 25 6 23 4 32 12 64
56 12 17 71 14 60 -3 -6 -11 15 -32 36 -38 25 -5 53 -11 90 -17 32 -5 36 -3
48 25 8 17 22 31 34 33 28 4 98 137 98 185 0 19 4 43 10 53 17 31 -7 78 -51
101 -21 10 -39 24 -39 30 0 6 -9 8 -20 4 -11 -3 -20 -3 -20 2 0 5 -12 14 -27
21 -16 6 -41 20 -58 31 -16 10 -55 22 -85 26 -30 3 -66 10 -80 15 -30 10 -138
19 -145 12z"/>
<path d="M980 2155 c-8 -10 -6 -17 12 -29 40 -29 54 -12 19 23 -16 16 -22 17
-31 6z"/>
<path d="M1060 2110 c-13 -8 -12 -10 3 -10 9 0 17 5 17 10 0 12 -1 12 -20 0z"/>
<path d="M1162 2079 c2 -6 8 -10 13 -10 5 0 11 4 13 10 2 6 -4 11 -13 11 -9 0
-15 -5 -13 -11z"/>
<path d="M1250 2070 c0 -5 6 -10 14 -10 8 0 18 5 21 10 3 6 -3 10 -14 10 -12
0 -21 -4 -21 -10z"/>
<path d="M2463 2057 c-8 -13 46 -54 79 -62 15 -4 30 -11 33 -15 3 -5 17 -5 32
1 18 7 28 6 33 -1 8 -13 94 -15 147 -4 20 4 21 7 11 23 -10 16 -14 17 -22 5
-12 -16 -56 -8 -56 10 -1 18 -47 46 -77 46 -15 -1 -61 1 -101 3 -40 2 -76 -1
-79 -6z"/>
<path d="M1220 2035 c7 -9 15 -13 17 -11 7 7 -7 26 -19 26 -6 0 -6 -6 2 -15z"/>
<path d="M1635 1543 c-46 -9 -98 -35 -125 -63 -24 -25 -28 -34 -20 -53 6 -12
13 -30 16 -39 4 -10 12 -18 18 -18 6 0 23 -13 36 -28 23 -26 30 -28 105 -29
49 0 81 -5 83 -12 2 -6 16 -11 32 -11 16 0 35 -6 42 -12 7 -7 28 -14 45 -15
27 -2 34 2 39 23 3 13 15 29 25 35 11 5 19 17 19 25 0 12 14 15 73 14 104 -3
158 8 185 37 l24 24 -26 38 c-15 21 -37 43 -49 49 -32 16 -115 23 -123 11 -3
-6 -16 -8 -28 -5 -16 4 -26 -2 -41 -24 -11 -17 -28 -33 -37 -36 -10 -3 -18
-13 -18 -21 0 -9 -3 -13 -7 -9 -5 4 -8 13 -8 19 0 7 -10 13 -23 13 -13 1 -32
11 -43 23 -11 11 -26 21 -33 21 -7 0 -24 8 -37 19 -24 18 -87 31 -124 24z"/>
<path d="M1153 1056 c-4 -8 -17 -15 -27 -17 -14 -3 -19 -13 -20 -44 -1 -22 2
-46 7 -52 5 -7 6 -24 3 -38 -5 -21 -2 -26 20 -31 19 -5 31 -2 38 8 8 10 24 14
51 12 22 -1 40 -3 40 -4 0 -8 180 -27 185 -20 17 23 52 28 155 20 131 -10 128
-10 372 -13 106 -2 195 -6 199 -10 4 -4 18 -7 31 -7 13 0 23 -4 23 -9 0 -5 18
-12 40 -16 30 -5 47 -2 65 9 20 13 43 15 116 11 96 -6 121 2 127 40 2 11 8 21
13 23 12 5 12 52 0 52 -5 0 -7 -9 -4 -20 3 -11 2 -20 -2 -20 -15 0 -35 30 -35
55 0 19 -5 25 -17 23 -10 -2 -21 -7 -24 -11 -3 -5 -22 -4 -42 1 -38 11 -77 6
-77 -9 0 -15 -93 -10 -151 8 -30 9 -58 16 -63 14 -4 -1 -14 3 -20 9 -7 5 -16
7 -19 3 -4 -3 -13 -1 -20 5 -7 6 -29 9 -48 7 -19 -2 -62 -5 -96 -6 -35 -1 -63
-4 -63 -8 0 -7 -88 -3 -110 6 -39 15 -135 22 -166 12 -11 -4 -45 -10 -75 -14
-30 -4 -57 -9 -60 -11 -3 -2 -25 -6 -47 -9 -23 -2 -59 -9 -82 -14 -37 -8 -43
-6 -71 20 -17 16 -39 29 -49 29 -10 0 -20 7 -24 15 -7 19 -62 20 -73 1z"/>
<path d="M2030 685 c0 -8 -4 -15 -10 -15 -5 0 -10 5 -10 10 0 6 -11 10 -25 10
-15 0 -25 -6 -25 -15 0 -21 -27 -25 -182 -27 -36 -1 -79 4 -95 10 -15 6 -65
13 -110 16 l-82 6 2 -32 c3 -41 13 -57 43 -68 13 -5 24 -16 24 -24 0 -17 54
-59 100 -76 53 -19 328 -23 354 -4 11 8 29 14 40 14 25 0 66 45 66 73 0 12 14
35 30 50 17 16 30 32 30 37 0 9 -80 23 -88 15 -3 -3 -11 4 -19 15 -17 23 -43
27 -43 5z"/>
<path d="M880 450 c0 -5 5 -10 11 -10 5 0 7 5 4 10 -3 6 -8 10 -11 10 -2 0 -4
-4 -4 -10z"/>
<path d="M1046 445 c4 -8 8 -15 10 -15 2 0 4 7 4 15 0 8 -4 15 -10 15 -5 0 -7
-7 -4 -15z"/>
<path d="M92 183 c-28 -4 -31 -7 -21 -19 13 -16 34 -19 24 -4 -3 6 3 10 14 10
12 0 21 5 21 10 0 6 -1 9 -2 8 -2 0 -18 -3 -36 -5z"/>
</g>
</svg>
